<?xml version="1.0" encoding="UTF-8"?>
<svg height="1em" width="1em" xmlns="http://www.w3.org/2000/svg" viewBox="0 0 17.93 31.61">
  <path d="m8.11,16.17c-2.79,0-5.05-2.27-5.05-5.05s2.27-5.05,5.05-5.05,5.05,2.27,5.05,5.05-2.27,5.05-5.05,5.05Zm0-8.09c-1.67,0-3.03,1.36-3.03,3.03s1.36,3.03,3.03,3.03,3.03-1.36,3.03-3.03-1.36-3.03-3.03-3.03Z" fill="currentColor"/>
  <path d="m14.07,23.85l2.08,7.2-1.94.57-1.99-6.88c-1.22.44-2.52.68-3.83.68-1.48,0-2.97-.29-4.39-.91l-2.06,7.12-1.94-.57,4.1-14.15,1.94.57-1.48,5.07c2.28,1.07,4.84,1.1,7.09.24l-1.55-5.32,1.94-.57,1.44,4.94c1.07-.73,2.01-1.69,2.72-2.86l1.73,1.04c-.98,1.64-2.32,2.93-3.86,3.83Z" fill="currentColor"/>
  <rect x="7.1" width="2.02" height="4.04" fill="currentColor"/>
</svg>
