<?xml version="1.0" encoding="UTF-8"?>
<svg height="1em" width="1em" xmlns="http://www.w3.org/2000/svg" viewBox="0 0 32 31.96">
  <g fill="currentColor">
    <g>
      <polygon points="2 7 0 7 0 0 7 0 7 2 2 2 2 7"/>
      <rect x="0" y="9" width="2" height="6"/>
      <rect x="9" width="6" height="2"/>
    </g>
    <g>
      <polygon points="25 2 25 0 32 0 32 7 30 7 30 2 25 2"/>
      <rect x="17" y="0" width="6" height="2"/>
      <rect x="30" y="9" width="2" height="6"/>
    </g>
    <g>
      <polygon points="32 31.96 25 31.96 25 29.96 30 29.96 30 24.96 32 24.96 32 31.96"/>
      <rect x="30" y="16.96" width="2" height="6"/>
      <rect x="17" y="29.96" width="6" height="2"/>
    </g>
    <g>
      <polygon points="0 31.96 0 24.97 2 24.97 2 29.96 7 29.96 7 31.96 0 31.96"/>
      <rect x="9" y="29.96" width="6" height="2"/>
      <rect y="16.96" width="2" height="6"/>
    </g>
  </g>
  <g fill="currentColor">
    <path d="m16.38,19.57c-2.21,0-4-1.79-4-4s1.79-4,4-4,4,1.79,4,4-1.79,4-4,4Zm0-6c-1.1,0-2,.9-2,2s.9,2,2,2,2-.9,2-2-.9-2-2-2Z"/>
  </g>
</svg>