<?xml version="1.0" encoding="UTF-8"?>
<svg xmlns="http://www.w3.org/2000/svg" viewBox="0 0 31.99 25" height="1em" width="1em" fill="currentColor">
  <path d="m20.99,22v-2c4.96,0,9-4.04,9-9s-4-8.96-8.92-9c-4.68.04-8.66,3.61-9.08,8.15-.01.16,0,.32,0,.48,0,.12,0,.24,0,.37h-2c0-.1,0-.2,0-.29,0-.25-.01-.49,0-.73C10.51,4.43,15.32.08,20.99,0h0S21.14,0,21.14,0c6,.08,10.85,4.98,10.85,11s-4.93,11-11,11Z"/>
  <path d="m15.99,11h-2c0-.14,0-.29-.01-.43v-.13s0-.09,0-.09c.32-3.45,3.5-6.29,7.08-6.34l.03,2c-2.56.03-4.83,2.01-5.1,4.44.01.23.02.4.02.56Z" />
  <path d="m11,22h-2.99C3.59,22,0,18.41,0,14S3.59,6,8,6v2c-3.31,0-6,2.69-6,6s2.69,6,6,6h2.99v2Z"/>
  <polygon points="19.68 19.27 18.31 20.73 16.99 19.49 16.99 25 14.99 25 14.99 19.49 13.68 20.73 12.31 19.27 15.99 15.8 19.68 19.27" />
</svg>