<?xml version="1.0" encoding="UTF-8"?>
<svg xmlns="http://www.w3.org/2000/svg" viewBox="0 0 25.77 31.57" height="1em" width="1em" fill="currentColor">
  <path d="m2.12,29.39c1.38,1.41,3.21,2.18,5.16,2.18h0c1.95,0,3.78-.77,5.16-2.18,2.77-2.83,2.83-7.39.17-10.29l-1.39,1.37c1.92,2.15,1.86,5.49-.17,7.56-1.01,1.03-2.35,1.59-3.77,1.59s-2.76-.57-3.76-1.59c-2.03-2.07-2.09-5.41-.17-7.56l-1.39-1.37c-2.65,2.9-2.6,7.46.17,10.29Z"/>
  <circle cx="7.28" cy="24.28" r="3.15"/>
  <path d="m7.28,1.95c1.13,0,2.05.92,2.05,2.05v12.05h1.95V4c0-2.21-1.79-4-4-4-1.07,0-2.07.42-2.83,1.17-.76.76-1.17,1.76-1.17,2.83v12.04h1.95V4c0-.55.21-1.06.6-1.45.39-.39.9-.6,1.45-.6Z"/>
  <rect x="17.48" y="5.43" width="3.9" height="1.95"/>
  <rect x="17.48" y="9.82" width="8.3" height="1.95"/>
  <rect x="17.48" y="14.22" width="8.3" height="1.95"/>
</svg>