<?xml version="1.0" encoding="UTF-8"?>
<svg height="1em" width="1em" xmlns="http://www.w3.org/2000/svg" viewBox="0 0 32 22">
  <path d="m3,6c-1.65,0-3-1.35-3-3S1.35,0,3,0s3,1.35,3,3-1.35,3-3,3Zm0-4c-.55,0-1,.45-1,1s.45,1,1,1,1-.45,1-1-.45-1-1-1Z" fill="currentColor"/>
  <path d="m3,14c-1.65,0-3-1.35-3-3s1.35-3,3-3,3,1.35,3,3-1.35,3-3,3Zm0-4c-.55,0-1,.45-1,1s.45,1,1,1,1-.45,1-1-.45-1-1-1Z" fill="currentColor"/>
  <path d="m3,22c-1.65,0-3-1.35-3-3s1.35-3,3-3,3,1.35,3,3-1.35,3-3,3Zm0-4c-.55,0-1,.45-1,1s.45,1,1,1,1-.45,1-1-.45-1-1-1Z" fill="currentColor"/>
  <polygon points="32 6 8 6 8 4 30 4 30 2 8 2 8 0 32 0 32 6" fill="currentColor"/>
  <polygon points="32 14 8 14 8 12 30 12 30 10 8 10 8 8 32 8 32 14" fill="currentColor"/>
  <polygon points="32 22 8 22 8 20 30 20 30 18 8 18 8 16 32 16 32 22" fill="currentColor"/>
</svg>