<?xml version="1.0" encoding="UTF-8"?>
<svg height="1em" width="1em" xmlns="http://www.w3.org/2000/svg" viewBox="0 0 32 32">
  <path d="m16,32C7.18,32,0,24.82,0,16S7.18,0,16,0s16,7.18,16,16-7.18,16-16,16Zm0-30c-7.72,0-14,6.28-14,14s6.28,14,14,14,14-6.28,14-14S23.72,2,16,2Z" fill="currentColor"/>
  <polygon points="17.54 28.56 18.95 19.58 12.43 16.31 16.32 11.5 14.96 11.02 9.66 12.23 6.43 9.76 7.65 8.18 10.13 10.07 15.08 8.94 19.65 10.57 15.55 15.64 21.15 18.45 20.37 23.44 23.96 20.31 25.99 12.76 27.92 13.28 25.74 21.42 17.54 28.56" fill="currentColor"/>
  <polygon points="10.48 25.18 8.51 24.79 9.18 21.4 5.14 21 5.34 19 11.56 19.63 10.48 25.18" fill="currentColor"/>
</svg>