<?xml version="1.0" encoding="UTF-8"?>
<svg xmlns="http://www.w3.org/2000/svg" viewBox="0 0 32.24 31.67" height="1em" width="1em" fill="currentColor">
  <polygon points="4.03 25.32 7.97 29.27 6.56 30.68 .2 24.32 6.56 17.95 7.97 19.37 4.02 23.32 19.99 23.32 20 25.32 4.03 25.32"/>
  <polygon points="32.05 8.32 25.68 14.68 24.27 13.27 28.21 9.32 12.25 9.32 12.24 7.32 28.22 7.32 24.27 3.37 25.68 1.95 32.05 8.32"/>
  <polygon points="2 14.67 0 14.67 0 0 15.24 0 15.24 2 2 2 2 14.67"/>
  <polygon points="30.24 17 32.24 17 32.24 31.67 17 31.67 17 29.67 30.24 29.67 30.24 17"/>
</svg>