<?xml version="1.0" encoding="UTF-8"?>
<svg id="Layer_1" data-name="Layer 1" xmlns="http://www.w3.org/2000/svg" viewBox="0 0 32 31.85">
  <defs>
    <style>
      .cls-1 {
        fill: #231f20;
      }
    </style>
  </defs>
  <path class="cls-1" d="m16,31.85C7.18,31.85,0,24.67,0,15.85,0,7.86,5.96,1.04,13.87,0l.26,1.98C7.22,2.9,2,8.86,2,15.85c0,7.72,6.28,14,14,14s14-6.28,14-14c0-6.99-5.22-12.96-12.13-13.87l.26-1.98c7.91,1.04,13.87,7.86,13.87,15.85,0,8.82-7.18,16-16,16Z"/>
  <path class="cls-1" d="m16,12.85c-1.65,0-3-1.35-3-3s1.35-3,3-3,3,1.35,3,3-1.35,3-3,3Zm0-4c-.55,0-1,.45-1,1s.45,1,1,1,1-.45,1-1-.45-1-1-1Z"/>
  <rect class="cls-1" x="15" y="14.85" width="2" height="10"/>
</svg>