<?xml version="1.0" encoding="UTF-8"?>
<svg height="1em" width="1em" xmlns="http://www.w3.org/2000/svg" viewBox="0 0 30.56 31.15">
  <path d="m22.14,16.42c-2.14,0-4.15-.83-5.66-2.34-1.51-1.51-2.34-3.52-2.34-5.66,0-2.14.83-4.15,2.34-5.66l2.73-2.76,11.34,11.32-2.76,2.75c-1.51,1.51-3.52,2.34-5.66,2.34Zm-2.92-13.58l-1.32,1.34c-1.14,1.14-1.76,2.65-1.76,4.25,0,1.6.62,3.11,1.76,4.24,1.13,1.13,2.64,1.76,4.24,1.76s3.11-.62,4.24-1.76l1.34-1.34L19.23,2.83Z" fill="currentColor"/>
  <path d="m22.21,18.07l-2.81,7.47-15.1,2.78,5.79-5.47c.6.36,1.3.57,2.05.57,2.21,0,4-1.79,4-4s-1.79-4-4-4-4,1.8-4,4c0,.73.2,1.42.55,2l-6.24,5.89,1.63-14.27,8.55-4.75-.97-1.74L2.21,11.8,0,31.15l20.88-3.85,3.2-8.53-1.87-.7Zm-10.07-.65c1.11,0,2,.9,2,2s-.89,2-2,2-2-.89-2-2,.9-2,2-2Z" fill="currentColor"/>
</svg>