<?xml version="1.0" encoding="UTF-8"?>
<svg height="1em" width="1em" xmlns="http://www.w3.org/2000/svg" viewBox="0 0 30.56 31.15">
  <defs>
    <style>
      .cls-1 {
        fill: currentColor;
      }
    </style>
  </defs>
  <rect class="cls-1" x="-.54" y="24.67" width="12.38" height="2" transform="translate(-16.08 10.89) rotate(-43.37)"/>
  <path class="cls-1" d="m12.15,23.42c-2.21,0-4-1.79-4-4s1.79-4,4-4,4,1.79,4,4-1.79,4-4,4Zm0-6c-1.1,0-2,.9-2,2s.9,2,2,2,2-.9,2-2-.9-2-2-2Z"/>
  <path class="cls-1" d="m22.15,16.42c-2.14,0-4.15-.83-5.66-2.34-1.51-1.51-2.34-3.52-2.34-5.66,0-2.14.83-4.15,2.34-5.66l2.73-2.76,11.34,11.32-2.76,2.75c-1.51,1.51-3.52,2.34-5.66,2.34Zm-2.92-13.58l-1.32,1.34c-1.14,1.14-1.76,2.65-1.76,4.25,0,1.6.62,3.11,1.76,4.24,1.13,1.13,2.64,1.76,4.24,1.76s3.11-.62,4.24-1.76l1.34-1.34L19.23,2.83Z"/>
  <polygon class="cls-1" points="0 31.15 2.21 11.79 11.66 6.54 12.63 8.29 4.08 13.04 2.29 28.69 19.41 25.54 22.21 18.07 24.08 18.77 20.88 27.3 0 31.15"/>
</svg>