<?xml version="1.0" encoding="UTF-8"?>
<svg id="Layer_1" data-name="Layer 1" width="1em" height="1em" style="transform: scale(1.05);" xmlns="http://www.w3.org/2000/svg" viewBox="0 0 32.16 32.16" fill="currentColor">
  <polygon points="24.75 22.97 23.34 21.56 26.87 18.02 22.63 13.78 24.04 12.36 29.7 18.02 24.75 22.97"/>
  <polygon points="15.56 32.16 0 16.61 14.14 2.46 19.8 8.12 18.38 9.53 14.14 5.29 2.83 16.61 15.56 29.33 19.09 25.8 20.51 27.21 15.56 32.16"/>
  <path d="m26.15,12c-.28,0-.56-.02-.83-.06l.28-1.98c1.25.18,2.51-.25,3.4-1.13.75-.75,1.17-1.76,1.17-2.83s-.42-2.07-1.17-2.83c-1.51-1.51-4.15-1.51-5.66,0-.88.88-1.31,2.15-1.13,3.4l-1.98.28c-.26-1.86.37-3.76,1.7-5.09,1.13-1.13,2.64-1.76,4.24-1.76s3.11.62,4.24,1.76c2.34,2.34,2.34,6.15,0,8.48-1.13,1.13-2.67,1.76-4.26,1.76Z"/>
  <path d="m16.98,25.43c-1.58,0-3.13-.63-4.26-1.76-2.34-2.34-2.34-6.15,0-8.49,2.34-2.34,6.14-2.34,8.48,0,1.33,1.33,1.96,3.23,1.7,5.09l-1.98-.28c.18-1.24-.25-2.51-1.13-3.4-1.56-1.56-4.1-1.56-5.66,0-1.56,1.56-1.56,4.1,0,5.66.88.88,2.15,1.31,3.4,1.13l.28,1.98c-.28.04-.56.06-.83.06Z"/>
</svg>
