<?xml version="1.0" encoding="UTF-8"?>
<svg height="1em" width="1em" xmlns="http://www.w3.org/2000/svg" viewBox="0 0 31.41 31.41">
  <polygon points="15.41 31.41 0 16 13.71 2.29 15.12 3.71 2.83 16 15.41 28.59 27.71 16.29 29.12 17.71 15.41 31.41" fill="currentColor"/>
  <polygon points="31.41 15 29.41 15 29.41 2 16.41 2 16.41 0 31.41 0 31.41 15" fill="currentColor"/>
  <path d="m21.42,15h-.03c-2.76-.02-4.99-2.27-4.97-5.03,0-1.34.54-2.59,1.49-3.53.94-.93,2.19-1.44,3.51-1.44h.03c2.76.02,4.99,2.27,4.97,5.03,0,1.34-.54,2.59-1.49,3.53-.94.93-2.19,1.44-3.51,1.44Zm0-8c-.79,0-1.54.31-2.11.87-.57.56-.89,1.32-.89,2.12,0,1.65,1.33,3.01,2.98,3.02.76,0,1.56-.3,2.13-.87s.89-1.32.89-2.12h0c0-1.65-1.33-3.01-2.98-3.02h-.02Z" fill="currentColor"/>
</svg>