<?xml version="1.0" encoding="UTF-8"?>
<svg height="1em" width="1em" xmlns="http://www.w3.org/2000/svg" viewBox="0 0 24 31.85">
  <g>
    <path d="m12,31.85c-6.62,0-12-5.38-12-12v-6h24v6c0,6.62-5.38,12-12,12ZM2,15.85v4c0,5.51,4.49,10,10,10s10-4.49,10-10v-4H2Z" fill="currentColor"/>
    <path d="m12,26.85c-1.65,0-2.99-1.33-3-2.97v-2.03c0-1.65,1.35-3,3-3s3,1.35,3,3v2.03c-.01,1.64-1.35,2.97-3,2.97Zm-1-3c0,.55.45,1,1,1s1-.45,1-1v-2c0-.55-.45-1-1-1s-1,.45-1,1v2Z" fill="currentColor"/>
  </g>
  <path d="m20,12h-2v-4.31c0-3.14-2.69-5.69-6-5.69s-6,2.55-6,5.69v4.31h-2v-4.31C4,3.45,7.59,0,12,0s8,3.45,8,7.69v4.31Z" fill="currentColor"/>
</svg>
