<?xml version="1.0" encoding="UTF-8"?>
<svg id="Layer_1" data-name="Layer 1" width="1em" height="1em" xmlns="http://www.w3.org/2000/svg" viewBox="0 0 21.99 31.89">
  <path d="m3.21,19.13C-1.07,14.76-1.07,7.66,3.21,3.29,5.29,1.17,8.05,0,10.99,0h0c2.94,0,5.71,1.17,7.78,3.29,4.28,4.37,4.28,11.47,0,15.84l-1.43-1.4c3.52-3.59,3.52-9.44,0-13.04-1.7-1.73-3.96-2.69-6.36-2.69h0c-2.4,0-4.66.96-6.36,2.69-3.52,3.59-3.52,9.44,0,13.04l-1.43,1.4Z"/>
  <polygon points="10.99 31.89 5.15 22.53 6.84 21.47 10.99 28.11 15.15 21.47 16.84 22.53 10.99 31.89"/>
  <path d="m10.99,17c-3.31,0-6-2.69-6-6s2.69-6,6-6,6,2.69,6,6-2.69,6-6,6Zm0-10c-2.21,0-4,1.79-4,4s1.79,4,4,4,4-1.79,4-4-1.79-4-4-4Z"/>
</svg>