<?xml version="1.0" encoding="UTF-8"?>
<svg xmlns="http://www.w3.org/2000/svg" viewBox="0 0 19.47 31.12" height="1em" width="1em" fill="currentColor">
  <path d="m4.94,20.87l-2.21-4.37C.97,14.68,0,12.28,0,9.74c0-2.6,1.01-5.05,2.85-6.88C4.69,1.01,7.14,0,9.74,0c2.6,0,5.05,1.01,6.88,2.85,1.84,1.84,2.85,4.28,2.85,6.88s-.97,4.94-2.74,6.77l-2.19,4.37-1.79-.9,2.34-4.65.11-.11c1.46-1.46,2.27-3.4,2.27-5.47s-.8-4.01-2.27-5.47c-1.46-1.46-3.4-2.27-5.47-2.27s-4.01.81-5.47,2.27-2.27,3.4-2.27,5.47.8,4.01,2.27,5.47l.19.26,2.28,4.51-1.79.9Z"/>
  <rect x="8.74" y="18.91" width="2" height="7.82" transform="translate(-14.09 29.75) rotate(-83.1)"/>
  <rect x="8.74" y="21.83" width="2" height="7.82" transform="translate(-16.99 32.31) rotate(-83.1)"/>
  <path d="m9.76,31.12c-1.62,0-2.94-1.32-2.94-2.94h2c0,.52.42.94.94.94s.94-.42.94-.94h2c0,1.62-1.32,2.94-2.94,2.94Z"/>
  <path d="m15.59,9.74h-2c0-2.12-1.73-3.85-3.85-3.85v-2c3.23,0,5.85,2.63,5.85,5.85Z"/>
</svg>