<?xml version="1.0" encoding="UTF-8"?>
<svg height="1em" width="1em" xmlns="http://www.w3.org/2000/svg" viewBox="0 0 32.13 31.95">
  <path d="m24.61,29.49c-2.61,1.66-5.57,2.46-8.53,2.46-4.15,0-8.28-1.59-11.35-4.66C-.8,21.77-1.52,13.28,2.8,6.98H.07v-2h6v6h-2v-2.28c-3.34,5.44-2.59,12.52,2.07,17.18,4.6,4.6,11.91,5.41,17.4,1.92l1.07,1.69Z" fill="currentColor"/>
  <path d="m29.33,24.98h2.74v2h-6v-6h2v2.27c3.34-5.44,2.59-12.52-2.07-17.17C21.4,1.48,14.09.66,8.61,4.15l-1.07-1.69c6.26-3.98,14.62-3.05,19.88,2.2,5.52,5.53,6.24,14.02,1.91,20.32Z" fill="currentColor"/>
</svg>