<?xml version="1.0" encoding="UTF-8"?>
<svg id="Layer_1" data-name="Layer 1" xmlns="http://www.w3.org/2000/svg" viewBox="0 0 28 32">
  <defs>
    <style>
      .cls-1 {
        fill: #231f20;
      }
    </style>
  </defs>
  <path class="cls-1" d="m14,32c-7.72,0-14-6.28-14-14C0,11.47,4.43,5.87,10.77,4.38l.46,1.95c-5.43,1.28-9.23,6.08-9.23,11.68,0,6.62,5.38,12,12,12s12-5.38,12-12c0-5.59-3.79-10.4-9.23-11.68l.46-1.95c6.34,1.49,10.77,7.1,10.77,13.62,0,7.72-6.28,14-14,14Z"/>
  <rect class="cls-1" x="13" width="2" height="6"/>
  <rect class="cls-1" x="11" width="6" height="2"/>
  <g>
    <polygon class="cls-1" points="7.4 24.58 10.06 16.69 11.96 17.32 10.58 21.41 14.68 20.04 15.31 21.94 7.4 24.58"/>
    <polygon class="cls-1" points="17.94 19.31 16.04 18.68 17.42 14.59 13.32 15.96 12.69 14.06 20.6 11.42 17.94 19.31"/>
  </g>
</svg>