<?xml version="1.0" encoding="UTF-8"?>
<svg id="Layer_1" data-name="Layer 1" xmlns="http://www.w3.org/2000/svg" viewBox="0 0 28 32">
  <path d="m14,32c-7.72,0-14-6.28-14-14C0,11.47,4.43,5.87,10.77,4.37l.46,1.95c-5.43,1.28-9.23,6.08-9.23,11.68,0,6.62,5.38,12,12,12s12-5.38,12-12c0-5.59-3.79-10.4-9.23-11.68l.46-1.95c6.34,1.49,10.77,7.1,10.77,13.62,0,7.72-6.28,14-14,14Z" fill="#231f20"/>
  <polygon points="17 0 17 2 15 2 15 6 13 6 13 2 11 2 11 0 17 0" fill="#231f20"/>
  <g>
    <polygon points="7.4 24.57 10.06 16.68 11.96 17.32 10.58 21.41 14.68 20.04 15.31 21.94 7.4 24.57" fill="#231f20"/>
    <polygon points="17.94 19.31 16.04 18.67 17.42 14.59 13.32 15.95 12.69 14.05 20.6 11.42 17.94 19.31" fill="#231f20"/>
  </g>
</svg>