<?xml version="1.0" encoding="UTF-8"?>
<svg height="1em" width="1em" xmlns="http://www.w3.org/2000/svg" viewBox="0 0 32 32" fill="currentColor">
  <g>
    <polygon points="26 14 6 14 6 6 8 6 8 12 24 12 24 6 26 6 26 14"/>
    <polygon points="22 10 16 10 16 6 18 6 18 8 20 8 20 6 22 6 22 10"/>
  </g>
  <polygon points="32 32 0 32 0 0 26 0 26 2 2 2 2 30 30 30 30 6 32 6 32 32"/>
  <rect x="6" y="18" width="20" height="2"/>
  <rect x="6" y="22" width="20" height="2"/>
  <rect x="6" y="26" width="20" height="2"/>
</svg>
