<?xml version="1.0" encoding="UTF-8"?>
<svg height="1em" width="1em" xmlns="http://www.w3.org/2000/svg" viewBox="0 0 32 32">
  <path d="m26.95,15c-.47-5.27-4.68-9.48-9.95-9.95V0h-2v5.05c-5.27.47-9.48,4.68-9.95,9.95H0v2h5.05c.47,5.27,4.68,9.48,9.95,9.95v5.05h2v-5.05c5.27-.47,9.48-4.68,9.95-9.95h5.05v-2h-5.05Zm-10.95,10c-4.96,0-9-4.04-9-9s4.04-9,9-9,9,4.04,9,9-4.04,9-9,9Z" fill="currentColor"/>
  <rect x="4" y="2" width="2" height="6" transform="translate(-2.07 5) rotate(-45)" fill="currentColor"/>
  <rect x="24" y="4" width="6" height="2" transform="translate(4.37 20.56) rotate(-45)" fill="currentColor"/>
  <rect x="2" y="26" width="6" height="2" transform="translate(-17.63 11.44) rotate(-45)" fill="currentColor"/>
  <rect x="26" y="24" width="2" height="6" transform="translate(-11.18 27) rotate(-45)" fill="currentColor"/>
</svg>