<?xml version="1.0" encoding="UTF-8"?>
<svg id="Icons" xmlns="http://www.w3.org/2000/svg" viewBox="0 0 28 32">
  <path d="m14,32c-7.72,0-14-6.28-14-14C0,12.23,3.46,7.12,8.82,5l.74,1.86c-4.59,1.82-7.55,6.2-7.55,11.15,0,6.62,5.38,12,12,12s12-5.38,12-12c0-4.95-2.97-9.32-7.55-11.15l.74-1.86c5.35,2.13,8.82,7.23,8.82,13,0,7.72-6.28,14-14,14Z" fill="#231f20"/>
  <path d="m14,13c-.8,0-1.56-.31-2.12-.88-.57-.57-.88-1.32-.88-2.12V3c0-.8.31-1.55.88-2.12C12.45.31,13.2,0,14,0c1.66,0,3,1.35,3,3v7c0,1.65-1.35,3-3,3Zm0-11c-.27,0-.52.1-.71.29-.19.19-.29.44-.29.71v7c0,.26.1.51.29.7.19.19.44.29.71.29.55,0,1-.45,1-1V3c0-.55-.45-1-1-1Z" fill="#231f20"/>
</svg>