<?xml version="1.0" encoding="UTF-8"?>
<svg xmlns="http://www.w3.org/2000/svg" viewBox="0 0 32 32" height="1em" width="1em" fill="currentColor">
  <g>
    <rect x="15" y="4" width="2" height="4"/>
    <rect x="24" y="15" width="4" height="2"/>
    <rect x="4" y="15" width="4" height="2"/>
    <rect x="7.93" y="6.93" width="2" height="4" transform="translate(-3.7 8.93) rotate(-45)"/>
    <rect x="13.87" y="10.85" width="12.39" height="2" transform="translate(-2.56 17.45) rotate(-44.47)"/>
  </g>
  <path d="m16,32C7.18,32,0,24.82,0,16S7.18,0,16,0c3.8,0,7.48,1.35,10.36,3.81l-1.3,1.52c-2.52-2.15-5.73-3.33-9.06-3.33-7.72,0-14,6.28-14,14s6.28,14,14,14,14-6.28,14-14c0-3.31-1.18-6.52-3.31-9.04l1.53-1.29c2.44,2.88,3.79,6.55,3.79,10.33,0,8.82-7.18,16-16,16Z"/>
  <path d="m10.93,25.8l-1.7-1.06c1.46-2.34,3.99-3.74,6.77-3.74s5.31,1.4,6.77,3.74l-1.7,1.06c-1.09-1.75-2.99-2.8-5.07-2.8s-3.98,1.05-5.07,2.8Z"/>
</svg>