<?xml version="1.0" encoding="UTF-8"?>
<svg height="1em" width="1em" xmlns="http://www.w3.org/2000/svg" viewBox="0 0 32.2 31.71">
  <polygon points="17.38 24.76 0 24.76 0 6.47 17.38 6.47 17.38 8.47 2 8.47 2 22.76 17.38 22.76 17.38 24.76" fill="currentColor"/>
  <polygon points="32.2 24.76 23.42 24.76 23.42 22.76 30.2 22.76 30.2 8.47 23.42 8.47 23.42 6.47 32.2 6.47 32.2 24.76" fill="currentColor"/>
  <rect x="17.38" width="6.04" height="2" fill="currentColor"/>
  <polygon points="15.31 10.8 15.31 12.8 10.94 12.8 10.94 20.36 8.94 20.36 8.94 12.8 4.56 12.8 4.56 10.8 15.31 10.8" fill="currentColor"/>
  <polygon points="23.42 29.71 23.42 31.71 17.38 31.71 17.38 29.71 19.49 29.71 19.49 3.59 21.49 3.59 21.49 29.71 23.42 29.71" fill="currentColor"/>
</svg>
