<?xml version="1.0" encoding="UTF-8"?>
<svg xmlns="http://www.w3.org/2000/svg" viewBox="0 0 29.17 29.71" height="1em" width="1em" fill="currentColor">
  <path d="m14.57,19.55h-.02c-1.25,0-2.43-.5-3.31-1.39-.88-.89-1.37-2.07-1.36-3.32,0-1.25.5-2.43,1.39-3.31s2.04-1.37,3.32-1.36c1.25,0,2.43.5,3.31,1.39.88.89,1.37,2.07,1.36,3.32,0,1.25-.5,2.43-1.39,3.31-.88.88-2.06,1.36-3.3,1.36Zm0-7.38c-.72,0-1.39.28-1.9.78-.51.51-.79,1.18-.8,1.9,0,.72.27,1.4.78,1.91.51.51,1.18.79,1.9.79.68.03,1.4-.27,1.91-.78.51-.51.79-1.18.79-1.9h0c0-.72-.27-1.4-.78-1.91-.51-.51-1.18-.79-1.9-.8h-.01Z" fill="#231f20"/>
  <path d="m17.75,29.71l-5.99-.02-1.14-4.32c-1.11-.39-2.13-.94-3.06-1.65l-4.17,1.1L.41,19.62l2.93-2.88c-.11-.65-.17-1.3-.17-1.93,0-.5.04-1.02.12-1.54l-3.29-3.31,3.01-5.18,4.5,1.25c.94-.73,1.97-1.29,3.08-1.68l.09-.7,1.98.25-.25,1.99-.63.18c-1.25.36-2.39.98-3.39,1.83l-.4.34-4.02-1.12-1.47,2.52,2.95,2.96-.1.52c-.11.58-.17,1.15-.17,1.7,0,.66.07,1.34.23,2.04l.12.54-2.61,2.57,1.45,2.53,3.68-.97.4.33c.97.82,2.08,1.41,3.3,1.77l.54.16,1.03,3.91h2.91s1.12-4.18,1.12-4.18l.46-.19c.9-.37,1.73-.88,2.47-1.51l.4-.34,4.03,1.12,1.47-2.52-2.94-2.96.1-.52c.11-.58.17-1.15.17-1.7,0-.4-.03-.83-.1-1.33l-.07-.5,3.36-3.31-1.45-2.53-4.41,1.17-.4-.36c-.78-.69-1.64-1.24-2.57-1.63l-.46-.19-1.11-4.2h-4.61s0-2.01,0-2.01l6.14.02,1.25,4.74c.8.38,1.55.85,2.26,1.42l4.87-1.29,2.98,5.2-3.75,3.68c.04.4.06.77.06,1.12,0,.51-.04,1.02-.12,1.54l3.29,3.31-3.01,5.18-4.5-1.25c-.66.51-1.38.95-2.13,1.3l-1.26,4.74Z" fill="#231f20"/>
</svg>