<?xml version="1.0" encoding="UTF-8"?>
<svg height="1em" width="1em" xmlns="http://www.w3.org/2000/svg" viewBox="0 0 31.74 31.71">
  <defs>
    <style>
      .cls-1 {
        fill: none;
        stroke: currentColor;
        stroke-miterlimit: 10;
        stroke-width: 2px;
      }
    </style>
  </defs>
  <g>
    <path class="cls-1" d="m1.88,4.41l.71.71c.78.78,2.05.78,2.83,0,.78-.78.78-2.05,0-2.83l-.71-.71-2.83,2.83Z"/>
    <line class="cls-1" x1="11.74" y1="11.22" x2="5.41" y2="5.12"/>
    <line class="cls-1" x1="26.74" y1="26.22" x2="21.28" y2="20.76"/>
    <path class="cls-1" d="m23.5,17.32l6.07,6.07c1.56,1.56,1.57,4.1,0,5.66-1.56,1.56-4.09,1.57-5.65,0l-6.08-6.08"/>
  </g>
  <g>
    <g>
      <g>
        <path class="cls-1" d="m29.59,10.61l-1.83,1.83c-2.34,2.34-6.14,2.34-8.48,0-2.34-2.34-2.35-6.14,0-8.49l1.83-1.83"/>
        <path class="cls-1" d="m31,10.61l-2.83-2.83-1.41,1.41c-1.17,1.17-3.07,1.17-4.24,0-1.17-1.17-1.17-3.07,0-4.24l1.41-1.41-2.83-2.83"/>
      </g>
      <line class="cls-1" x1="4.03" y1="26.68" x2="6.03" y2="26.68"/>
    </g>
    <line class="cls-1" x1="17.83" y1="17.22" x2="13.87" y2="13.3"/>
    <path class="cls-1" d="m12.52,16.36l-10.35,7.52c-1.56,1.56-1.56,4.09,0,5.66,1.56,1.56,4.1,1.56,5.66,0l7.52-10.34"/>
  </g>
</svg>