<?xml version="1.0" encoding="UTF-8"?>
<svg height="1em" width="1em" xmlns="http://www.w3.org/2000/svg" viewBox="0 0 31.74 31.71">
  <g>
    <path d="m6.71,4.98c.19-.39.29-.82.29-1.27,0-.8-.31-1.56-.88-2.12L4.71.17.46,4.41l1.42,1.42c.58.58,1.35.88,2.12.88.45,0,.9-.1,1.31-.3l5.74,5.54,1.39-1.44-5.73-5.53Zm-3.42-.56l1.42-1.42c.19.19.29.44.29.71s-.1.52-.29.71c-.39.39-1.03.38-1.42,0Z" fill="currentColor"/>
    <rect x="23.01" y="19.63" width="2" height="7.73" transform="translate(-9.58 23.86) rotate(-45)" fill="currentColor"/>
    <path d="m26.74,31.22c-1.28,0-2.55-.49-3.53-1.46l-6.08-6.08,1.41-1.41,6.08,6.08c1.17,1.17,3.07,1.16,4.24,0,1.17-1.17,1.17-3.08,0-4.25l-6.07-6.07,1.41-1.41,6.07,6.07c1.95,1.95,1.95,5.13,0,7.08-.98.98-2.26,1.46-3.54,1.46Z" fill="currentColor"/>
  </g>
  <g>
    <g>
      <path d="m28.17,6.36l-2.12,2.13c-.38.37-.88.58-1.41.58s-1.04-.21-1.42-.58c-.37-.38-.58-.88-.58-1.42s.21-1.03.58-1.41l2.12-2.12-3.53-3.54-1.42,1.41-1.82,1.83c-1.33,1.33-2.05,3.08-2.05,4.95s.72,3.63,2.05,4.95c1.32,1.33,3.08,2.05,4.95,2.05s3.62-.72,4.95-2.05l1.82-1.83,1.42-1.41-3.54-3.54Zm-1.12,5.37c-.94.94-2.2,1.46-3.53,1.46s-2.59-.52-3.54-1.46c-.94-.95-1.46-2.2-1.46-3.54s.52-2.59,1.46-3.53l1.83-1.83.71.71-.71.7c-.76.76-1.17,1.76-1.17,2.83s.41,2.08,1.17,2.83c.75.76,1.76,1.17,2.83,1.17s2.07-.41,2.83-1.17l.7-.71.71.71-1.83,1.83Z" fill="currentColor"/>
      <rect x="4.03" y="25.68" width="2" height="2" fill="currentColor"/>
    </g>
    <rect x="14.85" y="12.47" width="2" height="5.58" transform="translate(-6.15 15.8) rotate(-45.33)" fill="currentColor"/>
    <path d="m5,31.71c-1.34,0-2.59-.52-3.54-1.46-.94-.94-1.46-2.2-1.46-3.54s.52-2.59,1.46-3.54l.12-.1,10.35-7.52,1.18,1.62-10.28,7.47c-.53.56-.83,1.29-.83,2.07s.31,1.55.88,2.12c1.12,1.12,3.05,1.14,4.19.05l7.47-10.28,1.62,1.18-7.62,10.46c-.94.94-2.2,1.47-3.54,1.47Z" fill="currentColor"/>
  </g>
</svg>